<svg width="24" height="25" viewBox="0 0 24 25" fill="none" xmlns="http://www.w3.org/2000/svg">
<path d="M9.156 18.9357C9.156 18.339 8.39194 17.8473 7.58309 17.3269C6.54922 16.6618 5.37736 15.9079 5.37736 14.5365C5.37508 13.975 5.56345 13.4307 5.90919 12.9999C6.25493 12.569 6.73576 12.2794 7.26669 12.1821V11.108H8.60002V12.2006C9.14168 12.3535 9.62006 12.6876 9.96146 13.1515C10.3029 13.6155 10.4884 14.1835 10.4894 14.768H9.15602C9.15567 14.4304 9.02675 14.1066 8.79753 13.8679C8.56831 13.6291 8.25752 13.4948 7.93336 13.4944C7.3693 13.4944 6.71069 13.7673 6.71069 14.5365C6.71069 15.1332 7.47475 15.6248 8.28361 16.1453C9.31747 16.8104 10.4893 17.5643 10.4893 18.9357C10.4916 19.4972 10.3032 20.0415 9.9575 20.4723C9.61176 20.9031 9.13093 21.1928 8.6 21.29V22.3642H7.26667V21.2716C6.72501 21.1187 6.24663 20.7846 5.90523 20.3206C5.56382 19.8567 5.37833 19.2887 5.37734 18.7041H6.71067C6.71102 19.0418 6.83995 19.3655 7.06916 19.6043C7.29838 19.8431 7.60917 19.9774 7.93334 19.9777C8.4974 19.9777 9.156 19.7048 9.156 18.9357ZM23.9685 7.27465L18.1521 0.0779605C18.1342 0.053705 18.1111 0.034062 18.0848 0.0205456C18.0584 0.00702913 18.0294 0 18 0C17.9706 0 17.9416 0.00702913 17.9152 0.0205456C17.8889 0.034062 17.8658 0.053705 17.8479 0.0779605L12.0315 7.27465C11.9643 7.35781 12.0119 7.5 12.1069 7.5H15.4667V11.1254C16.5938 12.7607 17.2 14.723 17.2 16.7361C17.2 18.7492 16.5938 20.7115 15.4667 22.3468V25H20.5333V7.50001H23.8931C23.9882 7.5 24.0357 7.35781 23.9685 7.27465ZM0 16.7361C3.1645e-06 15.1017 0.465288 13.5039 1.33702 12.1449C2.20874 10.7859 3.44776 9.72674 4.89739 9.10127C6.34702 8.4758 7.94215 8.31215 9.48106 8.63101C11.02 8.94988 12.4336 9.73694 13.5431 10.8927C14.6526 12.0484 15.4081 13.5209 15.7142 15.1239C16.0203 16.7269 15.8632 18.3885 15.2628 19.8986C14.6623 21.4086 13.6455 22.6992 12.3409 23.6073C11.0362 24.5153 9.5024 25 7.93334 25C5.83001 24.9975 3.81351 24.1261 2.32623 22.5768C0.838955 21.0276 0.00236516 18.9271 0 16.7361ZM1.33333 16.7361C1.33333 18.0958 1.72041 19.4251 2.44563 20.5556C3.17084 21.6862 4.20162 22.5674 5.40761 23.0878C6.61361 23.6081 7.94065 23.7443 9.22092 23.479C10.5012 23.2137 11.6772 22.559 12.6002 21.5975C13.5233 20.636 14.1519 19.411 14.4065 18.0774C14.6612 16.7437 14.5305 15.3614 14.0309 14.1052C13.5314 12.8489 12.6855 11.7752 11.6001 11.0198C10.5147 10.2643 9.23869 9.86111 7.93334 9.86111C6.18352 9.86317 4.50593 10.5882 3.26862 11.877C2.03131 13.1659 1.33531 14.9134 1.33333 16.7361Z" fill="#E8B34B"/>
</svg>
