<svg width="28" height="28" viewBox="0 0 28 28" fill="none" xmlns="http://www.w3.org/2000/svg">
<path d="M24.1106 2.33379H21.7767V0H20.2212V2.33379H7.77739V0H6.22191V2.33379H3.88939C1.7449 2.33379 0 4.07861 0 6.22299V24.1108C0 26.2552 1.7449 28 3.88939 28H24.1106C26.2551 28 28 26.2552 28 24.1108V10.1108V8.5554V6.22161C27.9986 4.07723 26.2537 2.33379 24.1106 2.33379ZM26.4431 24.1094C26.4431 25.3952 25.3965 26.4418 24.1106 26.4418H3.88939C2.60214 26.4418 1.55548 25.3952 1.55548 24.1094V10.1108H26.4431V24.1094ZM26.4431 8.5554H1.55548V6.22161C1.55548 4.93443 2.60214 3.88781 3.88939 3.88781H6.2233V5.44321H7.77739V3.8892H20.2212V5.4446H21.7767V3.8892H24.1106C25.3965 3.8892 26.4431 4.93443 26.4431 6.22161V8.5554Z" fill="#4C4583"/>
</svg>
