<svg width="24" height="25" viewBox="0 0 24 25" fill="none" xmlns="http://www.w3.org/2000/svg">
<rect opacity="0.08" y="0.5" width="24" height="24" rx="3" fill="#22AD5C"/>
<path d="M16.103 14.2738C16.4627 14.1508 16.7636 13.9073 16.9565 13.5848C17.1598 13.2423 17.2209 12.8402 17.1296 12.4543C17.0645 12.1829 17.1336 11.9301 17.3289 11.7259C17.6076 11.4367 17.76 11.0586 17.76 10.6627C17.76 10.2668 17.6076 9.88868 17.3289 9.5995C17.132 9.39537 17.0629 9.14405 17.1296 8.87109C17.2209 8.48525 17.1598 8.08315 16.9565 7.74061C16.7533 7.39806 16.4261 7.14444 16.0379 7.03001C15.7632 6.94881 15.5742 6.76479 15.4909 6.49724C15.3733 6.1168 15.1129 5.80055 14.7612 5.6026C14.4095 5.40465 13.9966 5.3451 13.6004 5.43403C13.3217 5.49743 13.0621 5.43016 12.8525 5.23994C12.5556 4.96853 12.1673 4.82007 11.7608 4.82007C11.3543 4.82007 10.966 4.96853 10.6691 5.23994C10.4595 5.43171 10.2014 5.49898 9.92117 5.43557C9.52499 5.34665 9.11211 5.40619 8.7604 5.60414C8.40869 5.80209 8.14825 6.12068 8.03075 6.49878C7.94739 6.76634 7.75843 6.95035 7.48371 7.03155C7.09307 7.14599 6.76835 7.39962 6.56509 7.74216C6.36184 8.08471 6.3007 8.48679 6.39201 8.87264C6.45711 9.14405 6.38804 9.39689 6.19114 9.60104C5.91245 9.89023 5.76001 10.2684 5.76001 10.6643C5.76001 11.0602 5.91245 11.4383 6.19114 11.7275C6.38804 11.9316 6.45712 12.1829 6.39201 12.4559C6.3007 12.8417 6.36184 13.2438 6.56509 13.5864C6.75644 13.9088 7.05895 14.1524 7.41861 14.2753L6.07521 19.1592C6.03868 19.2937 6.07759 19.4383 6.17922 19.5373C6.28085 19.6363 6.42695 19.6757 6.56508 19.6402L8.56508 19.1375L10.0411 20.5472C10.1181 20.6206 10.2197 20.6601 10.3237 20.6601C10.3586 20.6601 10.3952 20.6562 10.4293 20.6462C10.5675 20.6083 10.6754 20.5039 10.712 20.3693L11.7608 16.5548L12.8096 20.3693C12.8462 20.5039 12.9541 20.609 13.0923 20.6462C13.1272 20.6562 13.1637 20.6601 13.1979 20.6601C13.3019 20.6601 13.4035 20.6206 13.4805 20.5472L14.9565 19.1375L16.9565 19.6402C17.0947 19.6757 17.2431 19.6363 17.3424 19.5373C17.444 19.4383 17.4829 19.2937 17.4464 19.1592L16.103 14.2753L16.103 14.2738ZM7.26381 13.1928C7.16218 13.0227 7.13201 12.8224 7.17806 12.633C7.3043 12.1087 7.1598 11.5837 6.78187 11.1916C6.64372 11.0494 6.56829 10.8607 6.56829 10.665C6.56829 10.4694 6.64372 10.2807 6.78187 10.1385C7.1598 9.74642 7.3043 9.21984 7.17806 8.69713C7.13121 8.50537 7.16218 8.30741 7.26381 8.13731C7.36544 7.96721 7.52582 7.8427 7.71875 7.78472C8.24755 7.62852 8.64135 7.24421 8.80172 6.73001C8.86048 6.54211 8.9891 6.38359 9.16376 6.28693C9.33844 6.18796 9.5417 6.15858 9.73859 6.20342C10.2769 6.32637 10.816 6.18564 11.2185 5.81758C11.3646 5.68303 11.5584 5.60957 11.7592 5.60957C11.9601 5.60957 12.1538 5.68303 12.2999 5.81758C12.7025 6.18565 13.2432 6.32637 13.7799 6.20342C13.9768 6.1578 14.1801 6.18796 14.3547 6.28693C14.5294 6.38591 14.6572 6.54211 14.7168 6.73001C14.8771 7.245 15.2717 7.62853 15.7997 7.78472C15.9927 7.84194 16.1554 7.9672 16.2547 8.13731C16.3539 8.30741 16.3865 8.50769 16.3404 8.69713C16.2142 9.22139 16.3587 9.74644 16.7366 10.1385C16.8748 10.2807 16.9502 10.4694 16.9502 10.665C16.9502 10.8607 16.8748 11.0494 16.7366 11.1916C16.3587 11.5837 16.2142 12.1103 16.3404 12.633C16.3873 12.8247 16.3563 13.0227 16.2547 13.1928C16.153 13.3629 15.9927 13.4874 15.7997 13.5454C15.2709 13.7016 14.8771 14.0859 14.7168 14.6001C14.658 14.788 14.5294 14.9465 14.3547 15.0432C14.18 15.1421 13.9744 15.1715 13.7799 15.1267C13.2416 15.0037 12.7025 15.1445 12.2999 15.5125C12.1539 15.6471 11.9601 15.7205 11.7592 15.7205C11.5584 15.7205 11.3646 15.6471 11.2185 15.5125C10.9113 15.2311 10.523 15.0826 10.1165 15.0826C9.99026 15.0826 9.86481 15.0965 9.73619 15.1259C9.53929 15.1692 9.33602 15.1414 9.16136 15.0424C8.98671 14.9434 8.85886 14.7872 8.79932 14.5993C8.63894 14.0843 8.24433 13.7008 7.71636 13.5446C7.52342 13.4874 7.36066 13.3621 7.26141 13.192L7.26381 13.1928ZM10.1135 19.5156L8.96935 18.4207C8.86772 18.324 8.72323 18.2861 8.58745 18.3217L7.03445 18.7114L8.07297 14.9349C8.20318 15.2658 8.44454 15.5427 8.76371 15.7228C9.11545 15.9208 9.5283 15.9803 9.92449 15.8914C10.2032 15.828 10.4628 15.8953 10.6724 16.0855C10.7717 16.1744 10.8796 16.2517 10.9955 16.3128L10.1158 19.5141L10.1135 19.5156ZM14.9383 18.3217C14.8018 18.2877 14.6557 18.3255 14.5564 18.4207L13.4123 19.5156L12.5326 16.3143C12.6485 16.2532 12.7581 16.1759 12.8558 16.087C13.0654 15.8952 13.3234 15.8279 13.6037 15.8929C13.9999 15.9818 14.4127 15.9223 14.7645 15.7243C15.0836 15.5465 15.3258 15.2689 15.4552 14.9364L16.4937 18.7129L14.9407 18.3232L14.9383 18.3217ZM8.32704 10.2674L9.87766 11.5696L9.41001 13.5112C9.37348 13.6658 9.43462 13.8259 9.56483 13.9172C9.63629 13.9666 9.71727 13.9922 9.80065 13.9922C9.8721 13.9922 9.94515 13.9744 10.0102 13.9349L11.7625 12.9019L13.5148 13.9349C13.653 14.0161 13.8277 14.0099 13.9602 13.9172C14.0904 13.8244 14.1532 13.6635 14.1151 13.5112L13.6474 11.5696L15.198 10.2674C15.3203 10.1646 15.3687 9.99987 15.3179 9.84987C15.2671 9.69908 15.1305 9.59469 14.9686 9.58077L12.9281 9.41452L12.1357 7.57573C12.073 7.43113 11.9261 7.33603 11.7641 7.33603C11.6014 7.33603 11.4553 7.43114 11.3926 7.57573L10.6002 9.41452L8.5597 9.58077C8.39932 9.59469 8.26116 9.69985 8.21035 9.84987C8.15953 10.0007 8.20796 10.1646 8.33023 10.2674L8.32704 10.2674ZM10.9082 10.1739C11.0567 10.1623 11.1869 10.0687 11.2456 9.93416L11.7617 8.7364L12.2778 9.93416C12.3366 10.0687 12.4668 10.1599 12.6153 10.1739L13.9444 10.2829L12.9344 11.1319C12.8209 11.227 12.7717 11.3755 12.8066 11.5178L13.1115 12.7828L11.9713 12.1101C11.8435 12.0351 11.6823 12.0351 11.5545 12.1101L10.4144 12.7828L10.7192 11.5178C10.7542 11.3755 10.7034 11.227 10.5914 11.1319L9.58147 10.2829L10.9106 10.1739H10.9082Z" fill="#22AD5C"/>
</svg>
