<svg width="20" height="20" viewBox="0 0 20 20" fill="none" xmlns="http://www.w3.org/2000/svg">
<path d="M9.99121 17.3896C10.241 17.3896 10.4434 17.593 10.4434 17.8428V19.0479C10.4432 19.2975 10.2409 19.5 9.99121 19.5C9.74165 19.4999 9.5392 19.2974 9.53906 19.0479V17.8428C9.53906 17.5931 9.74157 17.3898 9.99121 17.3896ZM4.12793 15.2197C4.30582 15.0539 4.58375 15.0593 4.75684 15.2324C4.92854 15.4043 4.93334 15.6815 4.76758 15.8594V15.8584L3.91602 16.7119C3.83238 16.8026 3.71547 16.8541 3.5918 16.8564C3.46943 16.8576 3.35179 16.8106 3.26465 16.7236C3.17865 16.6376 3.13046 16.518 3.13281 16.3955C3.13527 16.2731 3.18693 16.1568 3.27637 16.0732L4.12793 15.2197ZM15.5371 15.0908C15.6595 15.0933 15.7746 15.1442 15.8594 15.2324L16.7109 16.084C16.8805 16.2618 16.8773 16.5417 16.7031 16.7148C16.5299 16.888 16.2492 16.8933 16.0713 16.7236L15.2197 15.8721C15.1314 15.7873 15.0805 15.6713 15.0781 15.5488C15.077 15.4275 15.1247 15.3096 15.2119 15.2236C15.2979 15.1366 15.4159 15.0896 15.5371 15.0908ZM16.5322 0.749023C16.7654 0.515865 17.1131 0.438676 17.4229 0.552734C17.7327 0.668212 17.9469 0.95258 17.9717 1.28125H17.9707L18.0225 1.97656L18.7178 2.02832C19.0477 2.05305 19.3318 2.26753 19.4473 2.57617C19.5613 2.88585 19.4862 3.23458 19.252 3.46777L18.335 4.38379C18.2007 4.51691 18.026 4.60241 17.8398 4.62598V4.625L15.7607 4.87891L11.4717 9.16895C11.6188 9.42211 11.6969 9.70975 11.6992 10.0029C11.6991 10.6908 11.2835 11.3116 10.6475 11.5742C10.0126 11.8379 9.28137 11.6915 8.79492 11.2051C8.30853 10.7186 8.16327 9.98741 8.42578 9.35254C8.68849 8.71637 9.31006 8.30176 9.99805 8.30176C10.2912 8.30419 10.5789 8.38113 10.832 8.52832L11.9717 7.3877C11.7361 7.20512 11.476 7.05547 11.1992 6.94238C11.1086 6.90474 11.017 6.87102 10.9229 6.84277C10.6236 6.75207 10.3122 6.70586 10 6.70703C8.66769 6.70703 7.46723 7.50957 6.95703 8.73926C6.44692 9.97025 6.72843 11.3866 7.6709 12.3291C8.612 13.2715 10.0289 13.5529 11.2588 13.043C12.4899 12.5328 13.293 11.3324 13.293 10C13.2953 9.69383 13.2504 9.38991 13.1621 9.09668C13.0879 8.85873 13.2219 8.60433 13.4609 8.53125C13.6989 8.45702 13.9521 8.59113 14.0264 8.8291C14.1418 9.20841 14.1996 9.60419 14.1973 10C14.1973 11.6986 13.1746 13.2286 11.6055 13.8789C10.0375 14.528 8.23171 14.169 7.03125 12.9688C5.83088 11.7685 5.47119 9.96247 6.12012 8.39453C6.77034 6.82531 8.30121 5.80273 10 5.80273C10.3957 5.80041 10.7905 5.85821 11.1709 5.97363C11.2792 6.00425 11.3855 6.04043 11.4902 6.08398C11.9001 6.24065 12.284 6.45916 12.6279 6.73242L13.7617 5.59863C13.6616 5.51264 13.5611 5.43221 13.4609 5.36035C13.2312 5.18604 12.988 5.03231 12.7324 4.90039C11.8949 4.44216 10.9534 4.20525 9.99805 4.20996C8.46323 4.21007 6.9904 4.82015 5.9043 5.90625C4.81826 6.99116 4.20801 8.4651 4.20801 10C4.20804 11.536 4.81838 13.0086 5.9043 14.0947C6.99031 15.1808 8.46317 15.7899 9.99805 15.79C11.5342 15.79 13.0075 15.1809 14.0938 14.0947C15.1798 13.0086 15.79 11.5361 15.79 10C15.7948 9.04812 15.5594 8.10887 15.1035 7.27246C14.9881 7.05336 15.0692 6.78285 15.2871 6.66504C15.5038 6.54615 15.7773 6.62441 15.8975 6.83984V6.84082C16.4228 7.81128 16.6964 8.89728 16.6953 10.001C16.6953 11.7762 15.9891 13.4785 14.7334 14.7344C13.4788 15.9902 11.7753 16.6963 10 16.6963C8.2247 16.6963 6.52147 15.9902 5.26562 14.7344C4.00978 13.4786 3.30469 11.7763 3.30469 10.001C3.30476 8.22461 4.00985 6.52238 5.26562 5.2666C6.52142 4.01087 8.22472 3.30469 10 3.30469C11.1028 3.30352 12.1894 3.57712 13.1602 4.10254C13.4546 4.25565 13.736 4.43359 14.001 4.63379C14.134 4.73033 14.2691 4.84027 14.4033 4.95801L15.1211 4.23926L15.374 2.16016C15.3976 1.97402 15.4813 1.80032 15.6133 1.66602L16.5322 0.749023ZM9.99707 9.20605C9.67434 9.20611 9.38442 9.40024 9.26074 9.69824C9.13829 9.9951 9.20723 10.3381 9.43457 10.5654C9.66187 10.7925 10.0041 10.8606 10.3008 10.7383C10.5988 10.6146 10.7939 10.3247 10.7939 10.002C10.7892 9.95841 10.7795 9.91444 10.7666 9.87207L10.3184 10.3203C10.1416 10.4967 9.85533 10.4969 9.67871 10.3203C9.50225 10.1437 9.50234 9.85734 9.67871 9.68066L10.127 9.23242C10.0845 9.21946 10.0407 9.21194 9.99707 9.20605ZM19.0469 9.55566C19.2965 9.55566 19.4998 9.75823 19.5 10.0078C19.5 10.2576 19.2966 10.4609 19.0469 10.4609H17.8418C17.5922 10.4608 17.3896 10.2575 17.3896 10.0078C17.3898 9.75831 17.5923 9.55579 17.8418 9.55566H19.0469ZM2.15723 9.54102C2.40698 9.54102 2.60938 9.74341 2.60938 9.99316C2.60934 10.2429 2.40696 10.4453 2.15723 10.4453H0.952148C0.702417 10.4453 0.500033 10.2429 0.5 9.99316C0.5 9.74341 0.702397 9.54102 0.952148 9.54102H2.15723ZM3.29004 3.28027C3.46559 3.10474 3.75005 3.10319 3.92676 3.27637L4.7793 4.12988C4.95116 4.30662 4.94872 4.58916 4.77441 4.76465C4.59889 4.93875 4.3163 4.94133 4.13965 4.76953L3.28711 3.91602C3.114 3.73936 3.11472 3.45582 3.29004 3.28027ZM16.2549 2.30371L16.0654 3.93066L17.7305 3.72754L18.5205 2.9209L17.5674 2.84863C17.3448 2.83209 17.1669 2.65427 17.1504 2.43164L17.0781 1.48047L16.2549 2.30371ZM10.0068 0.5C10.2575 0.50017 10.4589 0.702602 10.459 0.952148V2.15723C10.459 2.40687 10.2576 2.61018 10.0068 2.61035C9.75708 2.61035 9.55371 2.40698 9.55371 2.15723V0.952148C9.55383 0.702497 9.75715 0.5 10.0068 0.5Z" fill="#4C4583"/>
</svg>
