<svg width="23" height="22" viewBox="0 0 23 22" fill="none" xmlns="http://www.w3.org/2000/svg">
<mask id="path-1-outside-1_1384_571" maskUnits="userSpaceOnUse" x="0" y="-0.499512" width="23" height="23" fill="black">
<rect fill="white" y="-0.499512" width="23" height="23"/>
<path d="M20.9062 12.0864C21.3091 12.0865 21.6346 12.4113 21.6347 12.8101V18.603C21.6347 20.1998 20.3348 21.4994 18.7382 21.4995H4.61807C3.01732 21.4993 1.71768 20.1997 1.71768 18.603V16.7925C1.71789 16.3938 2.04077 16.0688 2.44229 16.0688C2.84504 16.069 3.16962 16.3939 3.16983 16.7925V18.603C3.16983 19.4034 3.8178 20.0511 4.61807 20.0513H7.87296V13.1724C7.87296 12.7736 8.19779 12.4478 8.59659 12.4478C8.9954 12.4478 9.3212 12.7735 9.3212 13.1724V20.0513H14.0273V14.9829C14.0273 14.5842 14.3523 14.2586 14.7509 14.2583C15.1497 14.2583 15.4755 14.5841 15.4755 14.9829V20.0513H18.7382C19.5343 20.0512 20.1815 19.4035 20.1815 18.603V12.8101C20.1816 12.4113 20.5045 12.0864 20.9062 12.0864ZM19.8358 0.500488C21.0266 0.500529 21.994 1.46785 21.994 2.65869V6.95654C21.994 7.35799 21.7084 7.70178 21.3466 7.73877C21.1331 7.75573 20.9378 7.69029 20.7851 7.55322C20.6323 7.41604 20.5458 7.21934 20.5458 7.01709V2.97217L15.0526 8.46533C14.535 8.98297 13.8224 9.24327 13.08 9.17822C12.4748 9.12873 11.9172 8.82794 11.4901 8.40088L9.31339 6.22412C9.12813 6.0389 8.86808 5.93408 8.59659 5.93408C8.32515 5.93415 8.065 6.0389 7.87979 6.22412L2.23526 11.8687C1.96797 12.1356 1.47906 12.1357 1.21182 11.8687V11.8677C0.929452 11.5863 0.929333 11.127 1.21182 10.8442L6.84952 5.20654C7.37129 4.68914 8.08383 4.42867 8.82608 4.49365C9.42711 4.54315 9.98492 4.84485 10.412 5.27197L12.5878 7.44873C12.9824 7.84331 13.6278 7.84331 14.0224 7.44873L19.5224 1.94873H15.4774C15.2752 1.94873 15.0785 1.86613 14.9413 1.71338C14.8027 1.55781 14.7374 1.36116 14.7558 1.15186C14.7884 0.785654 15.1322 0.500488 15.538 0.500488H19.8358Z"/>
</mask>
<path d="M20.9062 12.0864C21.3091 12.0865 21.6346 12.4113 21.6347 12.8101V18.603C21.6347 20.1998 20.3348 21.4994 18.7382 21.4995H4.61807C3.01732 21.4993 1.71768 20.1997 1.71768 18.603V16.7925C1.71789 16.3938 2.04077 16.0688 2.44229 16.0688C2.84504 16.069 3.16962 16.3939 3.16983 16.7925V18.603C3.16983 19.4034 3.8178 20.0511 4.61807 20.0513H7.87296V13.1724C7.87296 12.7736 8.19779 12.4478 8.59659 12.4478C8.9954 12.4478 9.3212 12.7735 9.3212 13.1724V20.0513H14.0273V14.9829C14.0273 14.5842 14.3523 14.2586 14.7509 14.2583C15.1497 14.2583 15.4755 14.5841 15.4755 14.9829V20.0513H18.7382C19.5343 20.0512 20.1815 19.4035 20.1815 18.603V12.8101C20.1816 12.4113 20.5045 12.0864 20.9062 12.0864ZM19.8358 0.500488C21.0266 0.500529 21.994 1.46785 21.994 2.65869V6.95654C21.994 7.35799 21.7084 7.70178 21.3466 7.73877C21.1331 7.75573 20.9378 7.69029 20.7851 7.55322C20.6323 7.41604 20.5458 7.21934 20.5458 7.01709V2.97217L15.0526 8.46533C14.535 8.98297 13.8224 9.24327 13.08 9.17822C12.4748 9.12873 11.9172 8.82794 11.4901 8.40088L9.31339 6.22412C9.12813 6.0389 8.86808 5.93408 8.59659 5.93408C8.32515 5.93415 8.065 6.0389 7.87979 6.22412L2.23526 11.8687C1.96797 12.1356 1.47906 12.1357 1.21182 11.8687V11.8677C0.929452 11.5863 0.929333 11.127 1.21182 10.8442L6.84952 5.20654C7.37129 4.68914 8.08383 4.42867 8.82608 4.49365C9.42711 4.54315 9.98492 4.84485 10.412 5.27197L12.5878 7.44873C12.9824 7.84331 13.6278 7.84331 14.0224 7.44873L19.5224 1.94873H15.4774C15.2752 1.94873 15.0785 1.86613 14.9413 1.71338C14.8027 1.55781 14.7374 1.36116 14.7558 1.15186C14.7884 0.785654 15.1322 0.500488 15.538 0.500488H19.8358Z" fill="#2B2755"/>
<path d="M20.9062 12.0864L20.9062 11.5864H20.9062V12.0864ZM21.6347 12.8101H22.1347V12.81L21.6347 12.8101ZM18.7382 21.4995V21.9995H18.7382L18.7382 21.4995ZM4.61807 21.4995L4.61801 21.9995H4.61807V21.4995ZM1.71768 16.7925L1.21768 16.7922V16.7925H1.71768ZM2.44229 16.0688L2.44253 15.5688H2.44229V16.0688ZM3.16983 16.7925H3.66983V16.7922L3.16983 16.7925ZM4.61807 20.0513L4.61795 20.5513H4.61807V20.0513ZM7.87296 20.0513V20.5513H8.37296V20.0513H7.87296ZM8.59659 12.4478V11.9478H8.59654L8.59659 12.4478ZM9.3212 20.0513H8.8212V20.5513H9.3212V20.0513ZM14.0273 20.0513V20.5513H14.5273V20.0513H14.0273ZM14.7509 14.2583V13.7583H14.7506L14.7509 14.2583ZM15.4755 20.0513H14.9755V20.5513H15.4755V20.0513ZM18.7382 20.0513V20.5513H18.7382L18.7382 20.0513ZM20.1815 12.8101L19.6815 12.81V12.8101H20.1815ZM19.8358 0.500488L19.8359 0.000488281H19.8358V0.500488ZM21.994 6.95654L22.494 6.95664V6.95654H21.994ZM21.3466 7.73877L21.3862 8.23733L21.3974 8.23618L21.3466 7.73877ZM20.7851 7.55322L20.451 7.92521L20.4511 7.92532L20.7851 7.55322ZM20.5458 2.97217H21.0458V1.76506L20.1923 2.61861L20.5458 2.97217ZM15.0526 8.46533L14.6991 8.11178L14.6991 8.11179L15.0526 8.46533ZM13.08 9.17822L13.1236 8.68012L13.1207 8.67989L13.08 9.17822ZM11.4901 8.40088L11.1366 8.75443L11.1366 8.75444L11.4901 8.40088ZM9.31339 6.22412L9.66694 5.87057L9.66691 5.87054L9.31339 6.22412ZM8.59659 5.93408V5.43408H8.59647L8.59659 5.93408ZM7.87979 6.22412L8.23335 6.57767L8.23336 6.57766L7.87979 6.22412ZM2.23526 11.8687L2.58858 12.2224L2.58881 12.2222L2.23526 11.8687ZM1.21182 11.8687H0.711823V12.0759L0.858424 12.2224L1.21182 11.8687ZM1.21182 11.8677H1.71182V11.6601L1.56476 11.5135L1.21182 11.8677ZM1.21182 10.8442L0.85827 10.4907L0.858109 10.4908L1.21182 10.8442ZM6.84952 5.20654L6.49745 4.8515L6.49597 4.85299L6.84952 5.20654ZM8.82608 4.49365L8.78247 4.99175L8.78505 4.99197L8.82608 4.49365ZM10.412 5.27197L10.7657 4.9185L10.7656 4.91843L10.412 5.27197ZM12.5878 7.44873L12.2342 7.8022L12.2342 7.80227L12.5878 7.44873ZM14.0224 7.44873L13.6688 7.09518L13.6688 7.09519L14.0224 7.44873ZM19.5224 1.94873L19.8759 2.30228L20.7295 1.44873H19.5224V1.94873ZM14.9413 1.71338L14.5679 2.04594L14.5693 2.04747L14.9413 1.71338ZM14.7558 1.15186L14.2577 1.10742L14.2577 1.10811L14.7558 1.15186ZM20.9062 12.0864L20.9061 12.5864C21.0354 12.5864 21.1347 12.6899 21.1347 12.8101L21.6347 12.8101L22.1347 12.81C22.1346 12.1327 21.5828 11.5865 20.9062 11.5864L20.9062 12.0864ZM21.6347 12.8101H21.1347V18.603H21.6347H22.1347V12.8101H21.6347ZM21.6347 18.603H21.1347C21.1347 19.9236 20.0587 20.9995 18.7382 20.9995L18.7382 21.4995L18.7382 21.9995C20.6109 21.9994 22.1347 20.4759 22.1347 18.603H21.6347ZM18.7382 21.4995V20.9995H4.61807V21.4995V21.9995H18.7382V21.4995ZM4.61807 21.4995L4.61813 20.9995C3.293 20.9994 2.21768 19.9231 2.21768 18.603H1.71768H1.21768C1.21768 20.4763 2.74164 21.9993 4.61801 21.9995L4.61807 21.4995ZM1.71768 18.603H2.21768V16.7925H1.71768H1.21768V18.603H1.71768ZM1.71768 16.7925L2.21768 16.7927C2.21775 16.6694 2.31757 16.5688 2.44229 16.5688V16.0688V15.5688C1.76398 15.5688 1.21804 16.1183 1.21768 16.7922L1.71768 16.7925ZM2.44229 16.0688L2.44206 16.5688C2.57044 16.5689 2.66977 16.6717 2.66983 16.7927L3.16983 16.7925L3.66983 16.7922C3.66947 16.1161 3.11964 15.5692 2.44253 15.5688L2.44229 16.0688ZM3.16983 16.7925H2.66983V18.603H3.16983H3.66983V16.7925H3.16983ZM3.16983 18.603H2.66983C2.66983 19.6797 3.54176 20.551 4.61795 20.5513L4.61807 20.0513L4.61819 19.5513C4.09384 19.5511 3.66983 19.1271 3.66983 18.603H3.16983ZM4.61807 20.0513V20.5513H7.87296V20.0513V19.5513H4.61807V20.0513ZM7.87296 20.0513H8.37296V13.1724H7.87296H7.37296V20.0513H7.87296ZM7.87296 13.1724H8.37296C8.37296 13.0489 8.47477 12.9478 8.59663 12.9478L8.59659 12.4478L8.59654 11.9478C7.92081 11.9478 7.37296 12.4982 7.37296 13.1724H7.87296ZM8.59659 12.4478V12.9478C8.71927 12.9478 8.8212 13.0497 8.8212 13.1724H9.3212H9.8212C9.8212 12.4974 9.27153 11.9478 8.59659 11.9478V12.4478ZM9.3212 13.1724H8.8212V20.0513H9.3212H9.8212V13.1724H9.3212ZM9.3212 20.0513V20.5513H14.0273V20.0513V19.5513H9.3212V20.0513ZM14.0273 20.0513H14.5273V14.9829H14.0273H13.5273V20.0513H14.0273ZM14.0273 14.9829H14.5273C14.5273 14.8598 14.629 14.7584 14.7512 14.7583L14.7509 14.2583L14.7506 13.7583C14.0755 13.7587 13.5273 14.3086 13.5273 14.9829H14.0273ZM14.7509 14.2583V14.7583C14.8736 14.7583 14.9755 14.8602 14.9755 14.9829H15.4755H15.9755C15.9755 14.3079 15.4258 13.7583 14.7509 13.7583V14.2583ZM15.4755 14.9829H14.9755V20.0513H15.4755H15.9755V14.9829H15.4755ZM15.4755 20.0513V20.5513H18.7382V20.0513V19.5513H15.4755V20.0513ZM18.7382 20.0513L18.7382 20.5513C19.8117 20.5512 20.6815 19.6784 20.6815 18.603H20.1815H19.6815C19.6815 19.1285 19.257 19.5512 18.7381 19.5513L18.7382 20.0513ZM20.1815 18.603H20.6815V12.8101H20.1815H19.6815V18.603H20.1815ZM20.1815 12.8101L20.6815 12.8101C20.6816 12.687 20.7812 12.5864 20.9062 12.5864V12.0864V11.5864C20.2279 11.5864 19.6817 12.1356 19.6815 12.81L20.1815 12.8101ZM19.8358 0.500488L19.8358 1.00049C20.7505 1.00052 21.494 1.74403 21.494 2.65869H21.994H22.494C22.494 1.19168 21.3027 0.000537843 19.8359 0.000488281L19.8358 0.500488ZM21.994 2.65869H21.494V6.95654H21.994H22.494V2.65869H21.994ZM21.994 6.95654L21.494 6.95645C21.494 7.14063 21.3653 7.23425 21.2957 7.24136L21.3466 7.73877L21.3974 8.23618C22.0515 8.16931 22.4939 7.57535 22.494 6.95664L21.994 6.95654ZM21.3466 7.73877L21.307 7.24034C21.2258 7.24679 21.1666 7.22384 21.119 7.18112L20.7851 7.55322L20.4511 7.92532C20.7089 8.15673 21.0404 8.26467 21.3862 8.2372L21.3466 7.73877ZM20.7851 7.55322L21.1192 7.18124C21.0727 7.13946 21.0458 7.07828 21.0458 7.01709H20.5458H20.0458C20.0458 7.36039 20.192 7.69261 20.451 7.92521L20.7851 7.55322ZM20.5458 7.01709H21.0458V2.97217H20.5458H20.0458V7.01709H20.5458ZM20.5458 2.97217L20.1923 2.61861L14.6991 8.11178L15.0526 8.46533L15.4062 8.81889L20.8994 3.32572L20.5458 2.97217ZM15.0526 8.46533L14.6991 8.11179C14.2867 8.52421 13.7198 8.73236 13.1236 8.68013L13.08 9.17822L13.0364 9.67632C13.9251 9.75417 14.7834 9.44174 15.4062 8.81887L15.0526 8.46533ZM13.08 9.17822L13.1207 8.67989C12.6552 8.64182 12.2036 8.40724 11.8437 8.04732L11.4901 8.40088L11.1366 8.75444C11.6308 9.24864 12.2944 9.61565 13.0392 9.67656L13.08 9.17822ZM11.4901 8.40088L11.8437 8.04733L9.66694 5.87057L9.31339 6.22412L8.95983 6.57767L11.1366 8.75443L11.4901 8.40088ZM9.31339 6.22412L9.66691 5.87054C9.38359 5.58726 8.99446 5.43408 8.59659 5.43408V5.93408V6.43408C8.7417 6.43408 8.87268 6.49054 8.95986 6.5777L9.31339 6.22412ZM8.59659 5.93408L8.59647 5.43408C8.19886 5.43418 7.80961 5.58718 7.52623 5.87058L7.87979 6.22412L8.23336 6.57766C8.32039 6.49063 8.45143 6.43412 8.59671 6.43408L8.59659 5.93408ZM7.87979 6.22412L7.52624 5.87057L1.88171 11.5151L2.23526 11.8687L2.58881 12.2222L8.23335 6.57767L7.87979 6.22412ZM2.23526 11.8687L1.88194 11.5149C1.80979 11.5869 1.63716 11.5868 1.56522 11.5149L1.21182 11.8687L0.858424 12.2224C1.32096 12.6845 2.12615 12.6843 2.58858 12.2224L2.23526 11.8687ZM1.21182 11.8687H1.71182V11.8677H1.21182H0.711823V11.8687H1.21182ZM1.21182 11.8677L1.56476 11.5135C1.47885 11.4279 1.47772 11.2855 1.56554 11.1976L1.21182 10.8442L0.858109 10.4908C0.380946 10.9684 0.380057 11.7447 0.858883 12.2218L1.21182 11.8677ZM1.21182 10.8442L1.56538 11.1978L7.20307 5.5601L6.84952 5.20654L6.49597 4.85299L0.85827 10.4907L1.21182 10.8442ZM6.84952 5.20654L7.20158 5.56158C7.61911 5.14755 8.18699 4.93962 8.78248 4.99175L8.82608 4.49365L8.86969 3.99556C7.98066 3.91773 7.12347 4.23073 6.49745 4.85151L6.84952 5.20654ZM8.82608 4.49365L8.78505 4.99197C9.24581 5.02991 9.69785 5.26489 10.0585 5.62552L10.412 5.27197L10.7656 4.91843C10.272 4.42481 9.6084 4.05638 8.86712 3.99534L8.82608 4.49365ZM10.412 5.27197L10.0584 5.62545L12.2342 7.8022L12.5878 7.44873L12.9414 7.09526L10.7657 4.9185L10.412 5.27197ZM12.5878 7.44873L12.2342 7.80227C12.8241 8.39213 13.7861 8.39213 14.3759 7.80227L14.0224 7.44873L13.6688 7.09519C13.4695 7.29449 13.1407 7.29449 12.9414 7.09519L12.5878 7.44873ZM14.0224 7.44873L14.3759 7.80228L19.8759 2.30228L19.5224 1.94873L19.1688 1.59518L13.6688 7.09518L14.0224 7.44873ZM19.5224 1.94873V1.44873H15.4774V1.94873V2.44873H19.5224V1.94873ZM15.4774 1.94873V1.44873C15.4096 1.44873 15.3508 1.42099 15.3133 1.37929L14.9413 1.71338L14.5693 2.04747C14.8062 2.31127 15.1408 2.44873 15.4774 2.44873V1.94873ZM14.9413 1.71338L15.3147 1.38082C15.268 1.32837 15.2475 1.26796 15.2539 1.1956L14.7558 1.15186L14.2577 1.10811C14.2273 1.45435 14.3375 1.78724 14.568 2.04594L14.9413 1.71338ZM14.7558 1.15186L15.2538 1.19629C15.2598 1.12927 15.3475 1.00049 15.538 1.00049V0.500488V0.000488281C14.9169 0.000488281 14.3171 0.442038 14.2577 1.10742L14.7558 1.15186ZM15.538 0.500488V1.00049H19.8358V0.500488V0.000488281H15.538V0.500488Z" fill="#2B2755" mask="url(#path-1-outside-1_1384_571)"/>
</svg>
