<svg width="5" height="19" viewBox="0 0 5 19" fill="none" xmlns="http://www.w3.org/2000/svg">
<path fill-rule="evenodd" clip-rule="evenodd" d="M2.90771 14.5C4.01228 14.5 4.90771 15.3954 4.90771 16.5C4.90771 17.6046 4.01228 18.5 2.90771 18.5C1.80315 18.5 0.907715 17.6046 0.907715 16.5C0.907715 15.3954 1.80315 14.5 2.90771 14.5ZM2.90771 7.5C4.01228 7.5 4.90771 8.39543 4.90771 9.5C4.90771 10.6046 4.01228 11.5 2.90771 11.5C1.80315 11.5 0.907715 10.6046 0.907715 9.5C0.907715 8.39543 1.80315 7.5 2.90771 7.5ZM2.90771 0.5C4.01228 0.5 4.90771 1.39543 4.90771 2.5C4.90771 3.60457 4.01228 4.5 2.90771 4.5C1.80315 4.5 0.907715 3.60457 0.907715 2.5C0.907715 1.39543 1.80315 0.5 2.90771 0.5Z" fill="#4C495D"/>
</svg>
