<svg width="62" height="62" viewBox="0 0 62 62" fill="none" xmlns="http://www.w3.org/2000/svg">
<rect opacity="0.08" width="62" height="62" rx="3" fill="#0088FE"/>
<path d="M41.5994 35.5821C42.5285 35.2645 43.3059 34.6353 43.8043 33.8023C44.3294 32.9174 44.4873 31.8787 44.2514 30.8819C44.0833 30.1807 44.2617 29.5276 44.7663 29.0002C45.4862 28.2531 45.88 27.2763 45.88 26.2535C45.88 25.2308 45.4862 24.254 44.7663 23.5069C44.2576 22.9796 44.0791 22.3303 44.2514 21.6252C44.4873 20.6284 44.3294 19.5897 43.8043 18.7048C43.2792 17.8198 42.4342 17.1647 41.4312 16.869C40.7215 16.6593 40.2334 16.1839 40.018 15.4927C39.7145 14.5099 39.0417 13.6929 38.1331 13.1816C37.2244 12.6702 36.1579 12.5164 35.1344 12.7461C34.4145 12.9099 33.7438 12.7361 33.2023 12.2447C32.4352 11.5436 31.4322 11.16 30.3821 11.16C29.3319 11.16 28.3289 11.5436 27.5618 12.2447C27.0203 12.7401 26.3537 12.9139 25.6297 12.7501C24.6062 12.5204 23.5396 12.6742 22.631 13.1856C21.7224 13.6969 21.0496 14.5199 20.7461 15.4967C20.5307 16.1879 20.0426 16.6633 19.3329 16.873C18.3237 17.1687 17.4849 17.8239 16.9598 18.7088C16.4347 19.5937 16.2768 20.6324 16.5127 21.6292C16.6809 22.3303 16.5024 22.9835 15.9937 23.5109C15.2738 24.2579 14.88 25.2348 14.88 26.2575C14.88 27.2803 15.2738 28.2571 15.9937 29.0042C16.5024 29.5315 16.6809 30.1807 16.5127 30.8859C16.2768 31.8827 16.4347 32.9214 16.9598 33.8063C17.4541 34.6393 18.2356 35.2685 19.1647 35.5861L15.6943 48.2028C15.5999 48.5504 15.7004 48.9239 15.963 49.1796C16.2255 49.4353 16.6029 49.5372 16.9598 49.4453L22.1264 48.1468L25.9394 51.7884C26.1383 51.9782 26.4009 52.08 26.6696 52.08C26.7598 52.08 26.8542 52.07 26.9423 52.0441C27.2992 51.9462 27.5782 51.6765 27.6725 51.329L30.382 41.4748L33.0915 51.329C33.1859 51.6766 33.4648 51.9482 33.8217 52.0441C33.912 52.07 34.0063 52.08 34.0945 52.08C34.3632 52.08 34.6257 51.9782 34.8247 51.7884L38.6376 48.1468L43.8043 49.4453C44.1612 49.5372 44.5448 49.4353 44.8011 49.1796C45.0636 48.9239 45.1641 48.5504 45.0698 48.2028L41.5993 35.5861L41.5994 35.5821ZM18.7648 32.7896C18.5023 32.3501 18.4243 31.8327 18.5433 31.3433C18.8694 29.989 18.4961 28.6327 17.5198 27.6199C17.1629 27.2524 16.9681 26.765 16.9681 26.2596C16.9681 25.7542 17.1629 25.2668 17.5198 24.8992C18.4961 23.8864 18.8694 22.5261 18.5433 21.1758C18.4223 20.6804 18.5023 20.169 18.7648 19.7296C19.0274 19.2901 19.4417 18.9685 19.9401 18.8187C21.3061 18.4152 22.3235 17.4224 22.7378 16.094C22.8895 15.6086 23.2218 15.1991 23.673 14.9494C24.1243 14.6938 24.6494 14.6178 25.158 14.7337C26.5486 15.0513 27.9413 14.6878 28.9812 13.7369C29.3586 13.3894 29.8591 13.1996 30.378 13.1996C30.8969 13.1996 31.3974 13.3893 31.7748 13.7369C32.8147 14.6878 34.2115 15.0513 35.598 14.7337C36.1067 14.6158 36.6318 14.6937 37.083 14.9494C37.5342 15.2051 37.8645 15.6087 38.0183 16.094C38.4326 17.4244 39.452 18.4152 40.8159 18.8187C41.3143 18.9665 41.7348 19.2901 41.9912 19.7296C42.2476 20.169 42.3317 20.6864 42.2127 21.1758C41.8866 22.5301 42.2599 23.8865 43.2362 24.8992C43.5931 25.2668 43.788 25.7542 43.788 26.2596C43.788 26.765 43.5931 27.2524 43.2362 27.6199C42.2599 28.6327 41.8866 29.993 42.2127 31.3433C42.3337 31.8387 42.2538 32.3501 41.9912 32.7896C41.7287 33.229 41.3143 33.5506 40.8159 33.7004C39.4499 34.1039 38.4325 35.0967 38.0183 36.4251C37.8665 36.9105 37.5342 37.32 37.083 37.5697C36.6318 37.8254 36.1005 37.9013 35.598 37.7854C34.2074 37.4678 32.8147 37.8314 31.7748 38.7822C31.3974 39.1298 30.8969 39.3196 30.378 39.3196C29.8591 39.3196 29.3586 39.1298 28.9812 38.7822C28.1874 38.0551 27.1844 37.6716 26.1343 37.6716C25.8082 37.6716 25.4841 37.7075 25.1518 37.7834C24.6431 37.8953 24.118 37.8234 23.6668 37.5677C23.2156 37.312 22.8854 36.9085 22.7316 36.4231C22.3172 35.0927 21.2978 34.1019 19.9339 33.6984C19.4355 33.5506 19.015 33.227 18.7586 32.7875L18.7648 32.7896ZM26.1264 49.1234L23.1708 46.2949C22.9083 46.0452 22.535 45.9473 22.1842 46.0392L18.1723 47.046L20.8551 37.29C21.1915 38.1449 21.815 38.8601 22.6396 39.3255C23.5482 39.8369 24.6148 39.9907 25.6382 39.761C26.3582 39.5972 27.0289 39.771 27.5704 40.2624C27.8268 40.4921 28.1057 40.6918 28.4051 40.8496L26.1325 49.1196L26.1264 49.1234ZM38.5907 46.0392C38.2379 45.9513 37.8605 46.0492 37.6041 46.2949L34.6485 49.1234L32.3759 40.8534C32.6754 40.6956 32.9585 40.4959 33.2107 40.2662C33.7522 39.7708 34.4188 39.597 35.1428 39.7648C36.1663 39.9945 37.2329 39.8407 38.1415 39.3293C38.966 38.8699 39.5916 38.1528 39.9259 37.2938L42.6088 47.0498L38.5968 46.043L38.5907 46.0392ZM21.5115 25.2324L25.5173 28.5962L24.3092 33.6121C24.2148 34.0116 24.3727 34.4251 24.7091 34.6608C24.8937 34.7887 25.1029 34.8546 25.3183 34.8546C25.5029 34.8546 25.6916 34.8087 25.8598 34.7068L30.3865 32.038L34.9133 34.7068C35.2702 34.9165 35.7214 34.9006 36.0639 34.6608C36.4003 34.4211 36.5623 34.0057 36.4639 33.6121L35.2558 28.5962L39.2616 25.2324C39.5774 24.9667 39.7025 24.5412 39.5713 24.1537C39.44 23.7642 39.0872 23.4945 38.6688 23.4585L33.3975 23.029L31.3505 18.2788C31.1885 17.9053 30.8091 17.6596 30.3907 17.6596C29.9702 17.6596 29.5928 17.9053 29.4308 18.2788L27.3838 23.029L22.1125 23.4585C21.6982 23.4945 21.3413 23.7661 21.21 24.1537C21.0788 24.5432 21.2039 24.9667 21.5198 25.2324L21.5115 25.2324ZM28.1795 24.9907C28.563 24.9607 28.8994 24.719 29.0512 24.3714L30.3844 21.2772L31.7176 24.3714C31.8694 24.719 32.2058 24.9547 32.5894 24.9907L36.0229 25.2723L33.4139 27.4657C33.1206 27.7114 32.9934 28.0949 33.0837 28.4624L33.8713 31.7304L30.9259 29.9926C30.5957 29.7988 30.1793 29.7988 29.8491 29.9926L26.9037 31.7304L27.6913 28.4624C27.7816 28.0949 27.6503 27.7113 27.3611 27.4657L24.7521 25.2723L28.1856 24.9907H28.1795Z" fill="#004BED"/>
</svg>
