<svg width="17" height="13" viewBox="0 0 17 13" fill="none" xmlns="http://www.w3.org/2000/svg">
<path d="M7.89478 0.271851C7.92653 0.27353 7.95768 0.280486 7.98755 0.291382C8.00881 0.298167 8.03003 0.307089 8.04907 0.318726C8.08414 0.33862 8.11604 0.363711 8.1438 0.392944C8.15421 0.398243 8.16289 0.406967 8.16821 0.417358C8.19401 0.439998 8.2181 0.464746 8.2395 0.491577L9.79907 3.09216H11.134C11.3827 3.09264 11.6216 3.19136 11.7981 3.36658C11.9743 3.54171 12.0741 3.77925 12.0764 4.02771V11.5736C12.0754 11.8231 11.9764 12.0621 11.8 12.2386C11.6234 12.4153 11.3838 12.515 11.134 12.516H1.70142C1.45162 12.5151 1.21204 12.4153 1.0354 12.2386C0.858942 12.0621 0.759087 11.8232 0.758057 11.5736V4.02771C0.760421 3.77916 0.860975 3.54173 1.03735 3.36658C1.21389 3.19134 1.45267 3.09261 1.70142 3.09216H8.69556L7.57153 1.20056H1.22974C1.10479 1.20056 0.985126 1.15115 0.896729 1.06287C0.808389 0.974528 0.758144 0.854779 0.758057 0.729858C0.758057 0.604819 0.808311 0.48429 0.896729 0.395874C0.985111 0.307684 1.10487 0.258179 1.22974 0.258179H7.83228C7.85352 0.259766 7.87487 0.26426 7.89478 0.271851ZM15.1711 11.1019C14.7846 11.1019 13.1568 10.3516 12.342 9.74841V5.84802C13.1567 5.2483 14.7846 4.49939 15.1711 4.49939V11.1019ZM15.9075 4.49939C16.0325 4.49939 16.1521 4.54965 16.2405 4.63806C16.3289 4.72648 16.3792 4.84604 16.3792 4.97107V10.6302C16.3787 10.7551 16.3288 10.8749 16.2405 10.9633C16.1522 11.0516 16.0324 11.1015 15.9075 11.1019H15.4358V4.49939H15.9075ZM3.11548 6.85681C2.9909 6.85773 2.87162 6.90749 2.78345 6.99548C2.69523 7.0837 2.64471 7.20373 2.6438 7.32849V10.1586C2.64471 10.2833 2.69523 10.4034 2.78345 10.4916C2.87162 10.5796 2.99091 10.6293 3.11548 10.6302H9.71802C9.84298 10.6297 9.96249 10.5798 10.051 10.4916C10.1396 10.4033 10.1898 10.2836 10.1907 10.1586V7.32849C10.1898 7.20343 10.1396 7.08375 10.051 6.99548C9.96249 6.90729 9.84298 6.85732 9.71802 6.85681H3.11548ZM7.83228 8.27087C7.95717 8.27098 8.07696 8.32123 8.16528 8.40955C8.25359 8.49791 8.30293 8.61763 8.30298 8.74255C8.30298 8.86759 8.2537 8.98812 8.16528 9.07654C8.07698 9.16473 7.95708 9.21413 7.83228 9.21423H5.00317C4.87835 9.21423 4.75854 9.16467 4.67017 9.07654C4.58175 8.98812 4.53149 8.86759 4.53149 8.74255C4.53154 8.61758 4.58179 8.49792 4.67017 8.40955C4.75857 8.32122 4.8782 8.27087 5.00317 8.27087H7.83228ZM3.11548 4.49939C2.99046 4.4994 2.87088 4.54966 2.78247 4.63806C2.6941 4.72647 2.6438 4.84607 2.6438 4.97107C2.64382 5.06428 2.67209 5.15529 2.72388 5.23279C2.77564 5.31021 2.8488 5.37094 2.93481 5.40662C3.02092 5.44228 3.11587 5.45114 3.20728 5.43298C3.29869 5.4148 3.38256 5.36997 3.44849 5.30408C3.51442 5.23814 3.56018 5.15432 3.57837 5.06287C3.59652 4.97146 3.58669 4.87651 3.55103 4.79041C3.51533 4.70432 3.45469 4.63027 3.3772 4.57849C3.29975 4.52686 3.20857 4.49939 3.11548 4.49939ZM5.00317 4.49939C4.87827 4.49985 4.75848 4.54974 4.67017 4.63806C4.58187 4.72638 4.53195 4.84619 4.53149 4.97107C4.53152 5.06428 4.55979 5.15529 4.61157 5.23279C4.66335 5.31021 4.73647 5.37095 4.82251 5.40662C4.90864 5.44229 5.00353 5.45116 5.09497 5.43298C5.18641 5.41479 5.27025 5.36999 5.33618 5.30408C5.40211 5.23815 5.44689 5.15431 5.46509 5.06287C5.48328 4.97141 5.4744 4.87655 5.43872 4.79041C5.40303 4.7043 5.34239 4.63028 5.26489 4.57849C5.18744 4.52684 5.09627 4.4994 5.00317 4.49939ZM6.88892 4.49939C6.7639 4.49941 6.64431 4.54966 6.55591 4.63806C6.46755 4.72647 6.41724 4.84607 6.41724 4.97107C6.41726 5.06428 6.44553 5.15529 6.49731 5.23279C6.54907 5.31021 6.62224 5.37093 6.70825 5.40662C6.79435 5.44228 6.88931 5.45113 6.98071 5.43298C7.07212 5.4148 7.156 5.36996 7.22192 5.30408C7.28786 5.23814 7.33361 5.15432 7.35181 5.06287C7.36996 4.97146 7.36013 4.87651 7.32446 4.79041C7.28877 4.70432 7.22812 4.63027 7.15063 4.57849C7.07319 4.52686 6.982 4.49939 6.88892 4.49939Z" fill="#0E512A"/>
</svg>
