<svg width="18" height="16" viewBox="0 0 18 16" fill="none" xmlns="http://www.w3.org/2000/svg">
<path d="M17.0156 11.1156L10.9969 1.4312C10.5188 0.784326 9.78752 0.418701 9.00002 0.418701C8.18439 0.418701 7.45314 0.784326 7.00314 1.4312L0.984395 11.1156C0.421895 11.875 0.33752 12.8593 0.759395 13.7031C1.18127 14.5468 2.02502 15.0812 2.98127 15.0812H15.0188C15.975 15.0812 16.8188 14.5468 17.2406 13.7031C17.6625 12.8875 17.5781 11.875 17.0156 11.1156ZM16.1156 13.1406C15.8906 13.5625 15.4969 13.8156 15.0188 13.8156H2.98127C2.50315 13.8156 2.10939 13.5625 1.88439 13.1406C1.68752 12.7187 1.71564 12.2406 1.99689 11.875L8.01564 2.19058C8.24064 1.8812 8.60627 1.68433 9.00002 1.68433C9.39377 1.68433 9.75939 1.85308 9.9844 2.19058L16.0031 11.875C16.2844 12.2406 16.3125 12.7187 16.1156 13.1406Z" fill="white"/>
<path d="M8.99996 5.6499C8.66246 5.6499 8.35309 5.93115 8.35309 6.29678V9.3624C8.35309 9.6999 8.63434 10.0093 8.99996 10.0093C9.36559 10.0093 9.64684 9.72803 9.64684 9.3624V6.26865C9.64684 5.93115 9.33746 5.6499 8.99996 5.6499Z" fill="white"/>
<path d="M8.99996 10.75C8.66246 10.75 8.35309 11.0312 8.35309 11.3969V11.5375C8.35309 11.875 8.63434 12.1844 8.99996 12.1844C9.36559 12.1844 9.64684 11.9031 9.64684 11.5375V11.3688C9.64684 11.0313 9.33746 10.75 8.99996 10.75Z" fill="white"/>
</svg>
