<svg width="18" height="18" viewBox="0 0 18 18" fill="none" xmlns="http://www.w3.org/2000/svg">
<path d="M9.00001 0.506348C4.30313 0.506348 0.506256 4.30322 0.506256 9.0001C0.506256 13.697 4.30313 17.522 9.00001 17.522C13.6969 17.522 17.5219 13.697 17.5219 9.0001C17.5219 4.30322 13.6969 0.506348 9.00001 0.506348ZM9.00001 16.2563C5.00626 16.2563 1.77188 12.9938 1.77188 9.0001C1.77188 5.00635 5.00626 1.77197 9.00001 1.77197C12.9938 1.77197 16.2563 5.03447 16.2563 9.02822C16.2563 12.9938 12.9938 16.2563 9.00001 16.2563Z" fill="white"/>
<path d="M10.125 7.65015H7.87499C7.53749 7.65015 7.22812 7.9314 7.22812 8.29702V13.922C7.22812 14.2595 7.50937 14.5689 7.87499 14.5689H10.125C10.4625 14.5689 10.7719 14.2876 10.7719 13.922V8.29702C10.7719 7.9314 10.4625 7.65015 10.125 7.65015ZM9.50624 13.2751H8.52187V8.91577H9.50624V13.2751Z" fill="white"/>
<path d="M8.99999 3.45947C8.04374 3.45947 7.22812 4.24697 7.22812 5.23135C7.22812 6.21572 8.01562 7.00322 8.99999 7.00322C9.98437 7.00322 10.7719 6.21572 10.7719 5.23135C10.7719 4.24697 9.95624 3.45947 8.99999 3.45947ZM8.99999 5.70947C8.71874 5.70947 8.49374 5.48447 8.49374 5.20322C8.49374 4.92197 8.71874 4.69697 8.99999 4.69697C9.28124 4.69697 9.50624 4.92197 9.50624 5.20322C9.50624 5.48447 9.28124 5.70947 8.99999 5.70947Z" fill="white"/>
</svg>
