<svg width="16" height="17" viewBox="0 0 16 17" fill="none" xmlns="http://www.w3.org/2000/svg">
<path d="M6.70968 16.5H9.29032C10.8568 16.5 12.129 15.2675 12.129 13.75V10.4975H13.0348C14.671 10.4975 16 9.2075 16 7.625C16 6.84 15.6645 6.0825 15.0761 5.5425L10.7561 1.5675C10.0077 0.88 9.02968 0.5 8 0.5C6.97032 0.5 5.98968 0.8775 5.24387 1.5675L0.923871 5.5425C0.338064 6.0825 0 6.8425 0 7.625C0 9.21 1.33161 10.4975 2.96516 10.4975H3.87097V13.75C3.87097 15.2675 5.14323 16.5 6.70968 16.5ZM2.96516 8.4975C2.4671 8.4975 2.06452 8.105 2.06452 7.625C2.06452 7.3875 2.16774 7.155 2.34581 6.9925L6.66581 3.0175C7.0271 2.685 7.50194 2.5 8 2.5C8.49806 2.5 8.9729 2.6825 9.33419 3.0175L13.6542 6.9925C13.8323 7.1575 13.9355 7.3875 13.9355 7.625C13.9355 8.105 13.5303 8.4975 13.0348 8.4975H11.1174C10.5368 8.4975 10.0671 8.955 10.0671 9.515V13.75C10.0671 14.1625 9.71871 14.5 9.2929 14.5H6.71226C6.28645 14.5 5.93806 14.1625 5.93806 13.75V9.515C5.93806 8.9525 5.46581 8.4975 4.88774 8.4975H2.97032H2.96516Z" fill="white"/>
</svg>
