<?xml version="1.0" encoding="utf-8"?>
<!-- Generator: Adobe Illustrator 24.0.2, SVG Export Plug-In . SVG Version: 6.00 Build 0)  -->
<svg version="1.1" id="Capa_1" xmlns="http://www.w3.org/2000/svg" xmlns:xlink="http://www.w3.org/1999/xlink" x="0px" y="0px"
	 viewBox="0 0 450 120" style="enable-background:new 0 0 450 120;" xml:space="preserve">
<style type="text/css">
	.st0{fill:url(#SVGID_1_);}
	.st1{fill:#2C2963;}
</style>
<g>
	<linearGradient id="SVGID_1_" gradientUnits="userSpaceOnUse" x1="192.6869" y1="20.1331" x2="26.5303" y2="89.1003">
		<stop  offset="0" style="stop-color:#384B96"/>
		<stop  offset="0.4483" style="stop-color:#414798"/>
		<stop  offset="1" style="stop-color:#2C2764"/>
	</linearGradient>
	<path class="st0" d="M134.2,104.3c2.4-2.1,4.7-3.9,6.6-6.1c2.4-2.9,4.6-6,6.7-9.1c0.6-0.9,1.2-1.3,2.3-1.3
		c5.4,0.1,10.8-0.1,16.2,0.1c5.8,0.2,10.8-4.7,10.8-10.9c0-6.1-4.7-10.8-10.7-10.8c-4.3,0-8.5,0-12.8,0c-0.5,0-1,0-1.6-0.1
		c0-5.4,0-10.8,0-16.3c0.6,0,1.2,0,1.8,0c3.9-0.1,7.9,0.2,11.8-0.3c5.1-0.6,8.2-5,7.9-10.2c-0.3-4.4-4.3-8.4-9-8.5
		c-6-0.2-11.9,0-17.9-0.1c-0.9,0-1.1,0.4-1.1,1.2c0,3.2,0,6.4,0,9.7c0,9.1,0.1,18.3,0,27.4c-0.2,15.5-11,29.6-25.9,33.9
		c-14.1,4-26.5,0.7-37.1-9.5c-0.3-0.3-0.6-0.8-0.9-1.1c-0.2-0.1-0.4-0.2-0.6-0.2c-0.3,0.5-0.5,1.1-0.9,1.5
		C60.8,112.6,28.3,105.5,19,79.9c-1.4-3.9-2.1-7.9-2.1-12c0-16.9,0-33.9,0-50.8c0-0.9-0.1-1.7,1.2-1.6c8.9,0.1,17.7,0,26.6,0
		c0.2,0,0.4,0,0.7,0.1c-0.3,0.4-0.5,0.7-0.7,0.9c-2.7,2.7-5.5,5.5-8.2,8.2c-0.7,0.7-1,1.4-1,2.3c0,13.6,0,27.3,0,40.9
		c0,9,7.2,16.9,16.2,17.7c9.4,0.9,18-5.4,19.7-14.5c0.3-1.4,0.4-2.8,0.4-4.2c0-16.5,0-33,0-49.6c0-0.6,0.1-1.2,0.1-1.9
		c6.2,0,12.2,0,18.5,0c0,0.7,0,1.3,0,1.9c0,16.7,0,33.4,0,50.1c0,9.3,7.1,17.3,16.2,18.2c9.5,0.9,17.9-5.3,19.8-14.6
		c0.2-1.2,0.4-2.4,0.4-3.7c0-13.6,0-27.3,0.1-40.9c0-1.1-0.3-1.9-1.2-2.7c-2.5-2.4-4.9-4.9-7.3-7.3c-0.3-0.3-0.6-0.7-1.2-1.2
		c0.8,0,1.3-0.1,1.8-0.1c15.9,0,31.7,0,47.6,0c12.5,0,22.5,8.2,25.1,20.3c1.2,5.5-0.1,10.5-3.1,15.1c-1,1.5-2.1,3-3.2,4.6
		c0.4,0.4,0.8,0.7,1.1,1.1c4.9,4.5,8.7,9.7,10,16.3c2.9,14.9-8.2,31.6-25.3,31.7c-11.7,0-23.5,0-35.2,0
		C135.4,104.3,134.9,104.3,134.2,104.3z"/>
	<g>
		<path class="st1" d="M245.3,53.8c-0.1-0.3-0.3-0.6-0.4-0.9c-0.1-0.3-0.3-0.6-0.4-0.9c-2-5-3.9-9.9-5.9-14.8s-3.9-9.8-5.9-14.8
			c0-0.1,0-0.1,0-0.2c0-0.1,0-0.1,0-0.2c0-0.4,0.3-0.7,0.8-0.7h4.8c0.5,0,0.9,0.3,1.1,0.9l8.6,23l8.4-23.2c0.1-0.4,0.5-0.7,0.9-0.7
			h5.1c0.4,0,0.6,0.1,0.7,0.2c0.1,0.1,0.2,0.3,0.2,0.5v0.3l-4.5,11.8l4.2,11l8.8-23c0.2-0.6,0.6-0.8,1.2-0.8h4.7
			c0.4,0,0.6,0.1,0.7,0.2c0.1,0.1,0.2,0.3,0.2,0.5c0,0.1,0,0.1,0,0.2v0.1c-2.1,5.2-4.2,10.4-6.4,15.6c-2.2,5.2-4.3,10.4-6.4,15.6
			c0,0,0,0.1-0.1,0.2c-0.1,0.1-0.1,0.2-0.2,0.3c-0.1,0.1-0.2,0.2-0.3,0.3s-0.3,0.1-0.5,0.1h-3.5c-0.3,0-0.6-0.1-0.8-0.2
			c-0.2-0.2-0.3-0.3-0.3-0.5c-0.8-1.9-1.5-3.8-2.3-5.7c-0.8-1.9-1.5-3.8-2.3-5.7L251.2,53c-0.1,0.2-0.1,0.3-0.2,0.5
			c-0.1,0.2-0.2,0.3-0.3,0.5c-0.1,0.1-0.2,0.3-0.4,0.3c-0.1,0.1-0.3,0.1-0.5,0.1h-3.5c-0.3,0-0.5-0.1-0.7-0.2S245.4,53.9,245.3,53.8
			z"/>
		<path class="st1" d="M305.8,51.3c-1.3,1.1-2.7,2-4.3,2.6c-1.6,0.6-3.3,1-5.1,1c-2,0-3.9-0.4-5.7-1.1c-1.8-0.8-3.4-1.8-4.7-3.1
			c-1.4-1.3-2.4-2.9-3.2-4.6c-0.8-1.8-1.2-3.7-1.2-5.7c0-1.3,0.2-2.6,0.5-3.8c0.3-1.2,0.8-2.4,1.4-3.5s1.3-2.1,2.2-3
			c0.9-0.9,1.8-1.7,2.9-2.3c1.1-0.6,2.2-1.1,3.5-1.5c1.2-0.3,2.6-0.5,3.9-0.5c1.1,0,2.2,0.1,3.3,0.4s2.1,0.7,3.1,1.2
			c1,0.5,1.9,1.1,2.8,1.8c0.9,0.7,1.6,1.5,2.3,2.4c0.9,1.2,1.5,2.6,2,4s0.6,3,0.6,4.8c0,0.4,0,0.8-0.1,1.1c0,0.3-0.1,0.5-0.3,0.7
			c-0.1,0.2-0.4,0.3-0.7,0.4s-0.7,0.1-1.2,0.1H288c0.2,1.1,0.6,2,1.1,2.8c0.5,0.8,1.2,1.5,1.9,2.1s1.6,1,2.4,1.3
			c0.9,0.3,1.8,0.4,2.6,0.4c0.7,0,1.3-0.1,1.9-0.2c0.6-0.1,1.2-0.3,1.7-0.5c0.5-0.2,1-0.5,1.5-0.8s0.9-0.6,1.2-0.9c0,0,0,0,0,0
			c0.2-0.2,0.3-0.3,0.5-0.4c0.2-0.1,0.3-0.1,0.5-0.1c0.1,0,0.3,0,0.5,0.1c0.2,0.1,0.3,0.2,0.5,0.4c0.4,0.5,0.7,0.9,1,1.2
			s0.5,0.6,0.7,0.8c0.2,0.2,0.3,0.4,0.4,0.6c0.1,0.2,0.1,0.3,0.1,0.5C306.7,50.5,306.4,50.9,305.8,51.3z M295.9,31.2
			c-0.9,0-1.7,0.2-2.6,0.5c-0.8,0.3-1.6,0.8-2.3,1.3c-0.7,0.5-1.3,1.2-1.8,1.9c-0.5,0.7-0.9,1.5-1.1,2.4h15.8
			c-0.2-0.9-0.6-1.7-1.1-2.5s-1.1-1.4-1.7-1.9c-0.7-0.5-1.5-1-2.3-1.3C297.9,31.4,296.9,31.2,295.9,31.2z"/>
		<path class="st1" d="M343.7,53.1c0,0.3-0.1,0.5-0.2,0.7s-0.3,0.3-0.4,0.4c-0.2,0.1-0.4,0.2-0.6,0.2s-0.5,0.1-0.7,0.1H339
			c-0.5,0-0.8-0.1-1-0.4c-0.2-0.3-0.3-0.6-0.4-1l-0.1-1.9c-0.5,0.5-1.1,1-1.7,1.5c-0.6,0.5-1.3,0.8-2,1.2c-0.7,0.3-1.5,0.6-2.3,0.8
			c-0.8,0.2-1.7,0.3-2.5,0.3c-1.3,0-2.6-0.2-3.9-0.5c-1.2-0.3-2.4-0.8-3.5-1.5c-1.1-0.6-2.1-1.4-3-2.3c-0.9-0.9-1.6-1.9-2.3-3
			s-1.1-2.3-1.5-3.5c-0.3-1.2-0.5-2.5-0.5-3.9c0-1.4,0.2-2.7,0.5-3.9s0.8-2.4,1.5-3.5c0.6-1.1,1.4-2.1,2.3-3c0.9-0.9,1.9-1.6,3-2.3
			c1.1-0.6,2.2-1.1,3.5-1.5s2.5-0.5,3.9-0.5c1,0,1.9,0.1,2.7,0.3c0.9,0.2,1.7,0.5,2.4,0.8c0.8,0.4,1.4,0.8,2.1,1.3
			c0.6,0.5,1.2,1.1,1.7,1.7l0.3-2.4c0.1-0.3,0.1-0.5,0.2-0.7c0.1-0.2,0.1-0.3,0.2-0.4c0.1-0.1,0.2-0.2,0.4-0.2s0.3-0.1,0.6-0.1h2.2
			c0.2,0,0.5,0,0.7,0.1c0.2,0,0.5,0.1,0.6,0.2s0.3,0.2,0.5,0.4c0.1,0.2,0.2,0.4,0.2,0.6V53.1z M320.5,40.3c0,1.2,0.2,2.3,0.6,3.4
			c0.4,1.1,1,2,1.7,2.8c0.7,0.8,1.6,1.4,2.6,1.9c1,0.5,2.1,0.7,3.3,0.7c1.2,0,2.3-0.2,3.4-0.7c1-0.5,2-1.1,2.7-1.9s1.4-1.7,1.8-2.8
			s0.7-2.2,0.7-3.4c0-1.2-0.2-2.3-0.7-3.4c-0.4-1.1-1.1-2-1.8-2.8s-1.7-1.4-2.7-1.9c-1-0.5-2.2-0.7-3.4-0.7c-1.2,0-2.3,0.2-3.3,0.7
			c-1,0.5-1.9,1.1-2.6,1.9c-0.7,0.8-1.3,1.7-1.7,2.8C320.7,38,320.5,39.1,320.5,40.3z"/>
		<path class="st1" d="M349.5,19.1c0-0.4,0.1-0.7,0.3-1s0.5-0.4,1-0.4h3.9c0.3,0,0.6,0.1,0.8,0.4s0.4,0.6,0.4,1v34
			c0,0.4-0.1,0.8-0.4,1c-0.2,0.2-0.6,0.3-1,0.3h-3.7c-0.5,0-0.8-0.1-1-0.3c-0.2-0.2-0.3-0.6-0.3-1V19.1z"/>
		<path class="st1" d="M372.3,54.4c-1.2,0-2.3-0.2-3.3-0.5c-1-0.3-1.9-0.8-2.7-1.5c-0.8-0.6-1.4-1.4-1.8-2.4c-0.4-0.9-0.7-2-0.7-3.2
			v-3.7V31.7h-2.6c-0.4,0-0.8-0.1-1-0.3c-0.2-0.2-0.3-0.5-0.3-1v-3.2c0-0.4,0.1-0.7,0.3-0.9c0.2-0.2,0.5-0.3,1-0.3h2.6
			c0-0.8,0-1.6,0-2.4s0-1.6,0-2.4c0-0.3,0.1-0.5,0.3-0.7c0.2-0.2,0.5-0.3,0.9-0.5c0.3-0.1,0.6-0.2,0.9-0.3c0.4-0.1,0.7-0.2,1.1-0.4
			c0.4-0.1,0.7-0.2,1.1-0.3s0.7-0.1,0.9-0.1c0.5,0,0.8,0.1,0.9,0.4c0.1,0.3,0.2,0.6,0.2,1c0,0.9,0,1.9,0,2.8c0,0.9,0,1.9,0,2.8h3.2
			c0.4,0,0.7,0.1,0.9,0.3c0.2,0.2,0.3,0.5,0.3,0.9v3c0,0.5-0.1,0.8-0.3,1c-0.2,0.2-0.5,0.3-0.9,0.3h-3.2c0,1,0,1.8,0,2.5
			s0,1.3,0,1.8s0,1,0,1.4c0,0.4,0,0.9,0,1.5s0,1.1,0,1.8c0,0.7,0,1.5,0,2.5c0,0,0,0.1,0,0.1c0,0,0,0.1,0,0.1v2.9
			c0,1,0.2,1.7,0.6,2.1c0.4,0.4,1,0.6,1.9,0.6c0.3,0,0.6,0.1,0.7,0.3c0.2,0.2,0.3,0.5,0.3,0.8v3.1c0,0.4-0.1,0.7-0.3,0.9
			C373,54.3,372.7,54.4,372.3,54.4z"/>
		<path class="st1" d="M385.4,29.1c0.4-0.5,0.8-0.9,1.3-1.3c0.5-0.4,1-0.8,1.6-1c0.6-0.3,1.3-0.5,2.1-0.7c0.8-0.2,1.7-0.2,2.7-0.2
			c1.7,0,3.2,0.3,4.5,1c1.3,0.6,2.4,1.5,3.3,2.6c0.9,1.1,1.5,2.4,2,3.9c0.5,1.5,0.7,3.1,0.7,4.7v14.9c0,0.5-0.1,0.9-0.4,1.2
			c-0.3,0.3-0.6,0.4-1.1,0.4h-3.4c-0.6,0-1-0.1-1.2-0.3c-0.2-0.2-0.3-0.6-0.3-1.2V38c0-0.8-0.1-1.6-0.4-2.3c-0.3-0.7-0.7-1.4-1.2-2
			c-0.5-0.6-1.1-1-1.9-1.4c-0.7-0.3-1.5-0.5-2.4-0.5c-0.7,0-1.4,0.1-2,0.4c-0.7,0.3-1.3,0.6-1.9,1.1c-0.6,0.5-1,1.1-1.4,1.8
			c-0.4,0.7-0.5,1.5-0.6,2.4v14.6c0,0.3,0,0.6,0,0.8c0,0.3-0.1,0.5-0.2,0.8s-0.2,0.4-0.4,0.5s-0.4,0.2-0.7,0.2h-3.7
			c-0.5,0-0.9-0.1-1.1-0.3s-0.3-0.6-0.3-1V19c0-0.4,0.1-0.7,0.4-1c0.2-0.3,0.6-0.4,1-0.4h3.7c0.3,0,0.7,0.1,0.9,0.4
			c0.3,0.3,0.4,0.6,0.4,0.9V29.1z"/>
		<path class="st1" d="M419.4,62.6c-0.1,0.3-0.3,0.6-0.5,0.7c-0.2,0.2-0.5,0.2-0.8,0.2h-4.2c-0.4,0-0.7-0.1-0.9-0.2
			c-0.2-0.1-0.2-0.3-0.2-0.5c0-0.1,0-0.3,0.1-0.4c0-0.2,0.1-0.3,0.1-0.3l3.9-10l-9.9-24.2c0,0,0-0.1,0-0.1v-0.2
			c-0.1-0.2-0.1-0.3-0.1-0.6c0-0.3,0.1-0.5,0.3-0.6c0.2-0.1,0.5-0.2,0.8-0.2h4c0.6,0,1.1,0.3,1.3,0.9l0.4,1c0.3,0.8,0.6,1.8,1,2.8
			c0.4,1,0.8,2.1,1.2,3.2c0.4,1.1,0.8,2.2,1.2,3.3c0.4,1.1,0.8,2.1,1.2,3.1c0.4,1,0.7,1.8,1,2.6c0.3,0.8,0.5,1.4,0.7,1.8l6.6-17.9
			c0.1-0.3,0.3-0.6,0.5-0.7c0.2-0.2,0.5-0.2,0.8-0.2h4.2c0.4,0,0.7,0.1,0.9,0.2s0.2,0.3,0.2,0.5c0,0.1,0,0.3-0.1,0.4
			s-0.1,0.3-0.1,0.3L419.4,62.6z"/>
	</g>
	<g>
		<path class="st1" d="M235.4,62.8c0-0.7,0.3-1,1-1h13.9c1.3,0,2.5,0.2,3.6,0.7c1.1,0.5,2.1,1.1,3,2c0.8,0.8,1.5,1.8,2,2.9
			s0.7,2.3,0.7,3.7c0,1.2-0.2,2.3-0.6,3.4s-1,2-1.8,2.7c0.6,0.4,1.2,1,1.6,1.5s0.9,1.2,1.3,1.9c0.4,0.7,0.6,1.4,0.8,2.1
			c0.2,0.8,0.3,1.5,0.3,2.3c0,1.3-0.2,2.6-0.7,3.8c-0.5,1.2-1.2,2.2-2,3.1s-1.9,1.6-3,2.2c-1.2,0.5-2.4,0.8-3.7,0.8h-15.3
			c-0.3,0-0.5-0.1-0.7-0.2c-0.2-0.2-0.3-0.4-0.3-0.7V62.8z M253.2,71.1c0-0.6-0.1-1.1-0.3-1.6s-0.5-0.9-0.8-1.3s-0.8-0.6-1.3-0.8
			c-0.5-0.2-1-0.3-1.6-0.3h-7.3v8.1h7.2c0.6,0,1.1-0.1,1.7-0.3c0.5-0.2,0.9-0.5,1.3-0.9c0.4-0.4,0.7-0.8,0.9-1.3
			C253.1,72.2,253.2,71.7,253.2,71.1z M254.7,84.8c0-0.5-0.1-1-0.3-1.5c-0.2-0.5-0.4-0.9-0.7-1.3c-0.3-0.4-0.7-0.7-1.1-1
			s-0.9-0.4-1.4-0.5c-0.3,0-0.6-0.1-0.9-0.1c-0.3,0-0.6-0.1-0.9-0.1h-7.5v9h7.5c0.3,0,0.6,0,0.9,0s0.6-0.1,0.9-0.1
			c0.5-0.1,1-0.2,1.4-0.5s0.8-0.6,1.1-1c0.3-0.4,0.6-0.9,0.7-1.3C254.6,85.9,254.7,85.3,254.7,84.8z"/>
		<path class="st1" d="M265.7,67.8c0-0.4,0.1-0.8,0.4-1c0.3-0.2,0.6-0.3,1-0.3h2.8c0.4,0,0.7,0.1,0.8,0.3c0.2,0.2,0.3,0.5,0.4,0.8
			c0.1,0.3,0.2,0.7,0.2,1.1c0,0.4,0.1,0.7,0.2,1c0.3-0.5,0.7-0.9,1.1-1.3c0.4-0.4,0.9-0.8,1.4-1.2c0.5-0.3,1.1-0.6,1.8-0.8
			c0.7-0.2,1.4-0.3,2.2-0.3c0.7,0,1.4,0,2,0.1s1.2,0.2,1.7,0.4c0.5,0.2,1.1,0.5,1.6,0.8s1.1,0.7,1.7,1.1c0.3,0.2,0.5,0.3,0.7,0.6
			c0.2,0.2,0.3,0.5,0.3,0.7c0,0.1,0,0.2-0.1,0.4c0,0.1-0.1,0.3-0.2,0.4l-1.8,2.9c-0.1,0.1-0.3,0.3-0.4,0.3c-0.2,0.1-0.3,0.1-0.4,0.1
			c-0.2,0-0.5-0.1-0.7-0.2c-0.5-0.3-0.9-0.5-1.3-0.8s-0.8-0.4-1.2-0.6c-0.4-0.2-0.8-0.3-1.2-0.4s-0.9-0.1-1.4-0.1
			c-1.3,0-2.4,0.4-3.4,1.3c-0.9,0.8-1.5,2-1.8,3.5v16.8c0,0.9-0.5,1.3-1.4,1.3h-3.7c-0.9,0-1.4-0.4-1.4-1.3V67.8z"/>
		<path class="st1" d="M290.1,58c0-0.9,0.4-1.3,1.3-1.3h3.7c0.4,0,0.8,0.1,1,0.3c0.3,0.2,0.4,0.6,0.4,1v3.3c0,0.3-0.1,0.7-0.4,1
			c-0.2,0.3-0.6,0.5-1,0.5h-3.7c-0.9,0-1.3-0.5-1.3-1.4V58z M290.1,67.9c0-0.4,0.1-0.7,0.3-1c0.2-0.3,0.5-0.4,1-0.4h3.7
			c0.2,0,0.3,0,0.5,0.1c0.2,0.1,0.3,0.2,0.5,0.3s0.2,0.3,0.3,0.4c0.1,0.2,0.1,0.3,0.1,0.5v25.6c0,0.9-0.5,1.3-1.4,1.3h-3.7
			c-0.9,0-1.3-0.4-1.3-1.3V67.9z"/>
		<path class="st1" d="M325.6,91.6c-0.5,0.5-1.1,1-1.7,1.5c-0.6,0.5-1.3,0.9-2,1.2s-1.5,0.6-2.3,0.8c-0.8,0.2-1.7,0.3-2.5,0.3
			c-2,0-3.9-0.4-5.6-1.1c-1.7-0.8-3.2-1.8-4.5-3.1s-2.3-2.9-3-4.6c-0.7-1.8-1.1-3.7-1.1-5.7c0-2,0.4-3.9,1.1-5.7
			c0.7-1.8,1.7-3.3,3-4.6s2.8-2.4,4.5-3.1c1.7-0.8,3.6-1.1,5.6-1.1c1.8,0,3.4,0.3,4.8,1c1.4,0.6,2.6,1.5,3.7,2.6V59.4
			c0-0.4,0.1-0.7,0.4-1c0.2-0.3,0.6-0.4,1-0.4h3.7c0.3,0,0.7,0.1,1,0.4c0.3,0.2,0.4,0.6,0.4,1v34c0,0.9-0.5,1.3-1.4,1.3h-3.3
			c-0.4,0-0.8-0.1-0.9-0.3c-0.2-0.2-0.3-0.6-0.4-1L325.6,91.6z M309.1,80.7c0,1.2,0.2,2.3,0.6,3.4c0.4,1.1,1,2,1.7,2.8
			c0.7,0.8,1.6,1.4,2.6,1.9c1,0.5,2.1,0.7,3.3,0.7c1.2,0,2.3-0.2,3.3-0.7s1.9-1.1,2.7-1.8s1.4-1.7,1.8-2.7c0.5-1,0.7-2.1,0.7-3.3
			v-0.2c0-1.2-0.2-2.3-0.7-3.4c-0.4-1.1-1.1-2-1.8-2.8c-0.8-0.8-1.7-1.5-2.7-1.9c-1-0.5-2.2-0.7-3.4-0.7c-1.2,0-2.3,0.2-3.3,0.7
			c-1,0.5-1.9,1.1-2.6,1.9c-0.7,0.8-1.3,1.8-1.7,2.8S309.1,79.5,309.1,80.7z"/>
		<path class="st1" d="M359.7,92.8c0.1-0.3,0.1-0.6,0.1-0.9c0-0.4,0-0.7,0-1c-0.5,0.6-1.1,1.1-1.7,1.6s-1.3,0.9-2,1.3
			c-0.7,0.4-1.5,0.7-2.3,0.9c-0.8,0.2-1.7,0.3-2.7,0.3c-1.3,0-2.6-0.2-3.8-0.5c-1.2-0.3-2.4-0.8-3.4-1.4s-2-1.3-2.9-2.2
			c-0.9-0.9-1.6-1.8-2.2-2.9c-0.6-1.1-1.1-2.2-1.4-3.4c-0.3-1.2-0.5-2.5-0.5-3.9c0-1.3,0.2-2.6,0.5-3.9s0.8-2.4,1.4-3.5
			s1.4-2.1,2.2-3c0.9-0.9,1.8-1.7,2.9-2.3s2.2-1.1,3.4-1.5s2.5-0.5,3.8-0.5c1,0,1.8,0.1,2.7,0.3c0.8,0.2,1.6,0.5,2.4,0.9
			c0.7,0.4,1.4,0.8,2.1,1.3c0.6,0.5,1.2,1.1,1.8,1.6c0.1-0.4,0.1-0.8,0.2-1.2c0.1-0.4,0.1-0.8,0.1-1.2c0.1-0.4,0.2-0.7,0.4-1
			c0.2-0.2,0.5-0.3,1-0.3c0.5,0,1,0,1.5,0c0.5,0,1,0,1.5,0c0.3,0,0.6,0.1,0.9,0.4s0.4,0.5,0.4,0.9v0.2v22.5c0,2.4-0.4,4.5-1.2,6.3
			c-0.8,1.8-1.9,3.3-3.2,4.5c-1.4,1.2-2.9,2.1-4.7,2.6c-1.8,0.6-3.7,0.9-5.7,0.9c-0.8,0-1.7-0.1-2.6-0.2s-1.7-0.3-2.5-0.6
			s-1.6-0.6-2.3-1c-0.7-0.4-1.4-0.8-2-1.3c-0.2-0.1-0.4-0.3-0.5-0.4s-0.2-0.4-0.2-0.6c0-0.1,0-0.2,0-0.4c0-0.1,0.1-0.3,0.2-0.4
			l1.7-2.4c0.2-0.2,0.3-0.3,0.4-0.4s0.3-0.1,0.4-0.1c0.1,0,0.3,0,0.4,0.1c0.2,0,0.3,0.1,0.5,0.3c0.4,0.3,0.8,0.6,1.3,0.8
			c0.5,0.2,1.1,0.4,1.6,0.5c0.6,0.1,1.1,0.2,1.7,0.3c0.6,0.1,1.1,0.1,1.5,0.1c1.1,0,2.2-0.1,3.2-0.4s1.9-0.7,2.7-1.2
			c0.8-0.5,1.4-1.2,1.9-1.9C359.3,94.6,359.6,93.7,359.7,92.8z M343.2,80.6c0,1.2,0.2,2.3,0.6,3.4c0.4,1.1,1,2,1.7,2.8
			c0.7,0.8,1.6,1.4,2.6,1.9c1,0.5,2.1,0.7,3.3,0.7c1.2,0,2.3-0.2,3.3-0.7c1-0.5,1.9-1.1,2.7-1.9c0.8-0.8,1.4-1.7,1.8-2.7
			c0.5-1,0.7-2.1,0.7-3.3v-0.4c0-1.2-0.3-2.3-0.7-3.3c-0.5-1-1.1-2-1.8-2.7s-1.7-1.4-2.7-1.9c-1-0.5-2.1-0.7-3.3-0.7
			c-1.2,0-2.3,0.2-3.3,0.7c-1,0.5-1.9,1.1-2.6,1.9c-0.7,0.8-1.3,1.7-1.7,2.8C343.5,78.3,343.2,79.4,343.2,80.6z"/>
		<path class="st1" d="M395.9,91.7c-1.3,1.1-2.7,2-4.3,2.6c-1.6,0.6-3.3,1-5.1,1c-2,0-3.9-0.4-5.7-1.1c-1.8-0.8-3.4-1.8-4.7-3.1
			s-2.4-2.9-3.2-4.6c-0.8-1.8-1.2-3.7-1.2-5.7c0-1.3,0.2-2.6,0.5-3.8c0.3-1.2,0.8-2.4,1.4-3.5s1.3-2.1,2.2-3
			c0.9-0.9,1.8-1.7,2.9-2.3c1.1-0.6,2.2-1.1,3.5-1.5c1.2-0.3,2.6-0.5,3.9-0.5c1.1,0,2.2,0.1,3.3,0.4c1.1,0.3,2.1,0.7,3.1,1.2
			c1,0.5,1.9,1.1,2.8,1.8s1.6,1.5,2.3,2.4c0.9,1.2,1.5,2.6,2,4c0.4,1.4,0.6,3,0.6,4.8c0,0.4,0,0.8-0.1,1.1c0,0.3-0.1,0.5-0.3,0.7
			c-0.1,0.2-0.4,0.3-0.7,0.4c-0.3,0.1-0.7,0.1-1.2,0.1h-19.8c0.2,1.1,0.6,2,1.1,2.8c0.5,0.8,1.2,1.5,1.9,2.1c0.7,0.6,1.6,1,2.4,1.3
			c0.9,0.3,1.8,0.4,2.6,0.4c0.7,0,1.3-0.1,1.9-0.2s1.2-0.3,1.7-0.5c0.5-0.2,1-0.5,1.5-0.8c0.5-0.3,0.9-0.6,1.2-0.9c0,0,0,0,0,0
			c0.2-0.2,0.3-0.3,0.5-0.4c0.2-0.1,0.3-0.1,0.5-0.1c0.1,0,0.3,0,0.5,0.1c0.2,0.1,0.3,0.2,0.5,0.4c0.4,0.5,0.7,0.9,1,1.2
			c0.3,0.3,0.5,0.6,0.7,0.8c0.2,0.2,0.3,0.4,0.4,0.6c0.1,0.2,0.1,0.3,0.1,0.5C396.7,90.9,396.4,91.3,395.9,91.7z M386,71.6
			c-0.9,0-1.7,0.2-2.6,0.5c-0.8,0.3-1.6,0.8-2.3,1.3c-0.7,0.5-1.3,1.2-1.8,1.9c-0.5,0.7-0.9,1.5-1.1,2.4H394
			c-0.2-0.9-0.6-1.7-1.1-2.5c-0.5-0.8-1.1-1.4-1.7-1.9c-0.7-0.5-1.5-1-2.3-1.3C387.9,71.7,387,71.6,386,71.6z"/>
	</g>
	<rect x="212" y="17.3" class="st1" width="2.8" height="85"/>
</g>
</svg>
