<svg width="157" height="157" viewBox="0 0 157 157" fill="none" xmlns="http://www.w3.org/2000/svg">
    <path d="M156.889 125.094L141.299 73.8418C140.898 72.5129 139.488 71.7565 138.16 72.1586L112.375 79.9067L44.5906 79.9749L18.8533 72.1585C17.5185 71.7565 16.1088 72.5061 15.7069 73.8417L0.110923 125.094C-0.297697 126.43 0.45826 127.84 1.7931 128.249L21.2242 134.171C22.1164 134.43 23.0221 134.56 23.9076 134.56C26.9859 134.56 29.9008 133.067 31.6851 130.594L75.9608 156.182C76.9551 156.734 78.0312 157 79.1073 157C81.348 157 83.5273 155.848 84.7192 153.797C84.7192 153.797 85.4683 152.523 86.9667 149.926C87.2391 149.456 87.423 148.966 87.566 148.468C88.2198 148.679 88.8941 148.802 89.5614 148.802C91.7884 148.802 93.9541 147.657 95.146 145.599C95.146 145.599 95.9019 144.318 97.3593 141.729C97.6317 141.258 97.8156 140.768 97.9586 140.263C98.6056 140.475 99.2799 140.59 99.9405 140.59C101.854 140.59 103.727 139.745 104.973 138.205L125.07 130.273C127.332 133.674 131.656 135.377 135.804 134.158L155.207 128.249C156.542 127.834 157.297 126.423 156.889 125.094ZM123.231 125.564L116.481 128.222C116.856 127.575 117.428 126.587 118.205 125.265C119.921 122.191 118.845 118.259 115.807 116.494L74.9383 92.8891C74.1619 92.4393 73.2017 92.4393 72.4185 92.8823L59.928 100.065C58.92 100.644 57.6329 100.31 57.0472 99.2948C57.0404 99.2812 56.1483 97.7615 54.4252 94.7222C54.146 94.252 54.0711 93.7 54.2141 93.1685C54.3571 92.6233 54.7113 92.1599 55.2016 91.8737L66.6772 85.2499C66.8066 85.1818 66.9156 85.0932 67.0246 84.9978L110.891 84.9501L123.231 125.564ZM22.6667 129.326L5.67455 124.147L19.7995 77.7267L41.0543 84.1869L28.2233 126.335C27.5219 128.679 25.0164 130.001 22.6667 129.326ZM99.2439 135.35L95.2121 133.019C95.144 132.979 95.0895 132.924 95.0214 132.883C94.9533 132.842 94.8783 132.822 94.8034 132.781L75.1614 121.428C73.9559 120.726 72.41 121.142 71.7152 122.348C71.0204 123.554 71.4292 125.094 72.6346 125.796L92.5696 137.32C93.1553 137.729 93.3528 138.546 92.9782 139.2C91.5412 141.749 90.7989 143.003 90.7853 143.03C90.4039 143.691 89.5185 143.923 88.8443 143.534L64.7633 129.612C63.5578 128.917 62.0119 129.333 61.3171 130.532C60.6225 131.738 61.0311 133.278 62.2365 133.987L82.0146 145.422C82.0418 145.443 82.0623 145.456 82.0895 145.47C82.7501 145.858 82.9749 146.703 82.5935 147.371C81.1088 149.94 80.3597 151.201 80.3528 151.228C79.9645 151.896 79.0996 152.134 78.4527 151.773L33.64 125.877L46.0759 85.031L56.9863 85.0174L52.6752 87.5047C51.0066 88.4656 49.8148 90.0193 49.3244 91.8932C48.8408 93.7468 49.1064 95.6618 50.0531 97.2563C51.7761 100.289 52.6819 101.829 52.6819 101.829C54.6501 105.236 59.0292 106.415 62.4482 104.439L73.6718 97.9855L113.275 120.861C113.942 121.25 114.174 122.115 113.82 122.756C112.328 125.332 111.586 126.592 111.579 126.613C111.388 126.947 111.082 127.185 110.714 127.287C110.51 127.342 110.101 127.396 109.679 127.158L105.491 124.739C105.463 124.725 105.45 124.705 105.423 124.691C105.395 124.678 105.368 124.671 105.341 124.657L85.5558 113.243C84.3503 112.548 82.8044 112.963 82.1096 114.169C81.415 115.376 81.8304 116.922 83.0359 117.618L102.915 129.093C103.562 129.489 103.773 130.327 103.385 131.008L101.185 134.845C100.783 135.526 99.9249 135.738 99.2439 135.35ZM134.359 129.319C131.976 130.007 129.449 128.679 128.734 126.328L115.903 84.1188L137.199 77.7131L151.324 124.14L134.359 129.319ZM92.3188 16.2529V60.6563C92.3188 62.0465 93.4493 63.1777 94.8386 63.1777H139.222C140.612 63.1777 141.742 62.0465 141.742 60.6563V16.2529C141.742 14.8491 140.612 13.7247 139.222 13.7247H94.8386C93.4425 13.7247 92.3188 14.8491 92.3188 16.2529ZM120.542 18.7743V27.3129L117.811 26.4474C117.314 26.2907 116.783 26.2907 116.293 26.4474L113.514 27.3265V18.7811H120.542L120.542 18.7743ZM97.3661 18.7743H108.467V30.7611C108.467 31.5584 108.849 32.3216 109.502 32.7987C109.938 33.119 110.463 33.2825 110.994 33.2825C111.246 33.2825 111.505 33.2485 111.75 33.1667L117.048 31.5039L122.313 33.1667C123.076 33.412 123.913 33.2757 124.567 32.7987C125.214 32.3217 125.602 31.5584 125.602 30.7611V18.7743H136.704L136.697 58.129H97.3655L97.3661 18.7743ZM124.226 47.7299H133.271V52.7795H124.226V47.7299ZM32.7213 35.3684C31.6725 33.2968 31.584 30.898 32.4898 28.7992C33.525 26.3937 35.752 24.5877 38.7623 23.7019C39.0688 23.6133 39.3753 23.5656 39.6749 23.4974V22.8705C39.6749 21.4803 40.8055 20.3559 42.2016 20.3559C43.5977 20.3559 44.7214 21.4803 44.7214 22.8705V23.4634C47.2073 23.9608 49.4616 25.1874 50.9462 27.0682C51.8111 28.1654 51.6272 29.7464 50.5308 30.6187C49.4343 31.4841 47.8474 31.3002 46.9894 30.203C45.6477 28.5062 42.7261 27.7975 40.1926 28.5539C38.6398 29.0105 37.557 29.8078 37.1211 30.8028C36.8078 31.5319 36.8487 32.3429 37.2301 33.1061C38.1563 34.9664 39.498 35.2253 42.2086 35.5662C44.96 35.9206 48.3789 36.3567 50.8852 39.7845C52.5197 41.9991 52.9828 44.7114 52.1383 47.2327C51.1917 50.054 48.7875 52.1596 45.3755 53.1681C45.1576 53.2363 44.9397 53.2635 44.7149 53.318V54.0063C44.7149 55.4033 43.5844 56.5277 42.1951 56.5277C40.7989 56.5277 39.6684 55.3965 39.6684 54.0063V53.5634C36.8488 53.1272 34.2676 51.7984 32.5991 49.7132C31.7274 48.6297 31.8976 47.042 32.9873 46.1627C34.0702 45.2973 35.6639 45.4676 36.5356 46.5512C38.0067 48.3911 41.1873 49.1544 43.9386 48.3297C45.7365 47.7982 46.9489 46.8441 47.3574 45.6243C47.6707 44.6975 47.4732 43.6549 46.8262 42.7826C45.648 41.1676 44.136 40.9087 41.5686 40.568C38.7422 40.2068 34.8735 39.7093 32.7213 35.3684ZM42.1947 65.4266C57.0687 65.4266 69.1716 53.3239 69.1716 38.4405C69.1716 23.5571 57.0694 11.4405 42.1947 11.4405C27.32 11.4405 15.2178 23.5499 15.2178 38.4405C15.2178 53.3166 27.32 65.4266 42.1947 65.4266ZM42.1947 16.4978C54.2833 16.4978 64.1242 26.3448 64.1242 38.4405C64.1242 50.5364 54.29 60.3762 42.1947 60.3762C30.1061 60.3762 20.2722 50.536 20.2722 38.4335C20.2722 26.3377 30.1065 16.4978 42.1947 16.4978ZM55.979 10.358C55.5772 9.78557 55.4342 9.07004 55.584 8.37498L56.9666 2.01706C57.2662 0.654145 58.6011 -0.218031 59.9701 0.0884828C61.3322 0.388332 62.197 1.7308 61.8975 3.10058L61.734 3.84337C66.9237 1.3152 72.6308 0 78.5014 0C86.8238 0 94.7376 2.62359 101.392 7.56409L98.3813 11.6187C92.606 7.31183 85.7275 5.04273 78.5021 5.04273C74.0345 5.04273 69.6894 5.93544 65.6508 7.6255C66.5702 8.10252 67.1354 9.12471 66.9788 10.2151C66.7949 11.4758 65.7189 12.3753 64.4861 12.3753C64.3636 12.3753 64.241 12.3617 64.1184 12.3481L57.6893 11.4145C56.9946 11.3191 56.374 10.9304 55.979 10.358ZM95.1045 73.775L95.268 73.0322C90.0647 75.5468 84.3576 76.8756 78.5073 76.8756C70.144 76.8756 62.2236 74.252 55.6102 69.3047L58.6341 65.2569C64.3686 69.5568 71.2403 71.8261 78.5063 71.8261C82.9604 71.8261 87.3055 70.9265 91.3509 69.2433C90.4315 68.7595 89.8662 67.7373 90.0228 66.6537C90.2203 65.2772 91.5075 64.3164 92.8832 64.5207L99.3123 65.4543C100 65.5565 100.627 65.9381 101.022 66.5105C101.424 67.083 101.56 67.7985 101.417 68.4935L100.034 74.8515C99.7754 76.0304 98.7334 76.8413 97.5687 76.8413C97.3917 76.8413 97.2078 76.8208 97.0307 76.7868C95.6686 76.4869 94.805 75.138 95.1045 73.775Z" fill="#462BDD"/>
</svg>
